<?xml version="1.0" encoding="utf-8"?>
<svg width="464px" height="197px" viewBox="0 0 464 197" version="1.1" xmlns:xlink="http://www.w3.org/1999/xlink" xmlns="http://www.w3.org/2000/svg">
  <defs>
    <linearGradient x1="0.21437505" y1="0.10116668" x2="0.6407083" y2="0.69645834" id="gradient_1">
      <stop offset="0" stop-color="#0F78D4" />
      <stop offset="1" stop-color="#103F91" />
    </linearGradient>
    <linearGradient x1="0.48606786" y1="0.5" x2="0.88692397" y2="0.5000002" id="gradient_2">
      <stop offset="0" stop-color="#0F72CD" />
      <stop offset="1" stop-color="#103F90" />
    </linearGradient>
    <filter filterUnits="userSpaceOnUse" color-interpolation-filters="sRGB" id="filter_1">
      <feFlood flood-opacity="0" result="BackgroundImageFix" />
      <feColorMatrix in="SourceAlpha" type="matrix" values="0 0 0 0 0 0 0 0 0 0 0 0 0 0 0 0 0 0 127 0" />
      <feOffset dx="0" dy="0" />
      <feGaussianBlur stdDeviation="10" />
      <feColorMatrix type="matrix" values="0 0 0 0 0 0 0 0 0 0 0 0 0 0 0 0 0 0 0.49803922 0" />
      <feBlend mode="normal" in2="BackgroundImageFix" result="effect0_dropShadow" />
      <feBlend mode="normal" in="SourceGraphic" in2="effect0_dropShadow" result="shape" />
    </filter>
    <path d="M0 0L463.214 0L463.214 196.515L0 196.515L0 0Z" id="path_1" />
    <path d="M129.094 71.1563C127.375 75.0313 125.703 78.1719 124.078 80.5781C122.453 82.9844 120.664 84.7969 118.711 86.0156C116.758 87.2344 114.438 87.8438 111.75 87.8438C110.031 87.8438 108.094 87.6406 105.938 87.2344L105.938 77.9531L110.109 77.9531C110.484 79.2344 110.953 80.125 111.516 80.625C112.078 81.125 112.891 81.375 113.953 81.375C114.891 81.375 115.727 81.1953 116.461 80.8359C117.195 80.4766 117.961 79.8594 118.758 78.9844C119.555 78.1094 120.492 76.7656 121.57 74.9531C122.648 73.1406 123.859 70.8438 125.203 68.0625L112.078 32.7656C111.234 30.4844 110.555 28.8906 110.039 27.9844C109.523 27.0781 108.969 26.3906 108.375 25.9219C107.781 25.4531 106.875 25.0781 105.656 24.7969L105.656 22.5L124.734 22.5L124.734 24.7969C123.266 25.1406 122.234 25.4766 121.641 25.8047C121.047 26.1328 120.609 26.5547 120.328 27.0703C120.047 27.5859 119.906 28.25 119.906 29.0625C119.906 29.9063 120.008 30.7813 120.211 31.6875C120.414 32.5938 120.734 33.6563 121.172 34.875L129.516 58.3594L138.891 35.8594C139.422 34.6094 139.836 33.4609 140.133 32.4141C140.43 31.3672 140.578 30.3906 140.578 29.4844C140.578 28.1406 140.211 27.125 139.477 26.4375C138.742 25.75 137.469 25.2031 135.656 24.7969L135.656 22.5L153.188 22.5L153.188 24.7969C151.969 25.0469 151.031 25.4297 150.375 25.9453C149.719 26.4609 149.063 27.2734 148.406 28.3828C147.75 29.4922 146.969 31.0469 146.063 33.0469L129.094 71.1563ZM95.7188 55.5938C95.7188 58.2813 95.8438 60.1484 96.0938 61.1953C96.3438 62.2422 96.8203 63.0391 97.5234 63.5859C98.2266 64.1328 99.375 64.6094 100.969 65.0156L100.969 67.3125L82.3594 67.3125L82.3594 65.0156C83.9219 64.6094 85.0078 64.1875 85.6172 63.75C86.2266 63.3125 86.6641 62.7891 86.9297 62.1797C87.1953 61.5703 87.3828 60.7422 87.4922 59.6953C87.6016 58.6484 87.6563 57.2813 87.6563 55.5938L87.6563 16.3594C87.6563 13.3594 87.6328 11.2656 87.5859 10.0781C87.5391 8.89063 87.4141 7.88282 87.2109 7.05469C87.0078 6.22656 86.7266 5.57813 86.3672 5.10938C86.0078 4.64063 85.5234 4.26563 84.9141 3.98438C84.3047 3.70313 83.2031 3.42188 81.6094 3.14063L81.6094 0.703125L92.9063 0.234375L95.7188 0.234375L95.7188 55.5938ZM78.2344 27.2344L67.0313 27.2344L67.0313 55.5937C67.0313 57.6875 67.1328 59.2656 67.3359 60.3281C67.5391 61.3906 67.8359 62.1953 68.2266 62.7422C68.6172 63.2891 69.1328 63.7266 69.7734 64.0547C70.4141 64.3828 71.4375 64.7031 72.8438 65.0156L72.8438 67.3125L53.6719 67.3125L53.6719 65.0156C55.0469 64.6406 56.0313 64.2813 56.625 63.9375C57.2188 63.5938 57.6797 63.1563 58.0078 62.625C58.3359 62.0937 58.5781 61.3281 58.7344 60.3281C58.8906 59.3281 58.9688 57.75 58.9688 55.5937L58.9688 27.2344L53.2969 27.2344L53.2969 24.8438C54.4844 24.6563 55.2734 24.5078 55.6641 24.3984C56.0547 24.2891 56.4297 24.125 56.7891 23.9063C57.1484 23.6875 57.4609 23.375 57.7266 22.9688C57.9922 22.5625 58.2266 21.9609 58.4297 21.1641C58.6328 20.3672 58.7969 19.25 58.9219 17.8125C59.2031 14.4062 59.8203 11.6406 60.7734 9.51563C61.7266 7.39063 63.1172 5.57813 64.9453 4.07813C66.7734 2.57813 68.7266 1.52344 70.8047 0.914063C72.8828 0.304688 75.3281 0 78.1406 0C80.6094 0 82.7031 0.171875 84.4219 0.515625L84.4219 9L79.7813 9C79.1875 7.15625 78.4922 5.85157 77.6953 5.08594C76.8984 4.32032 75.7813 3.9375 74.3438 3.9375C73.3125 3.9375 72.4453 4.07813 71.7422 4.35938C71.0391 4.64063 70.3906 5.07813 69.7969 5.67187C69.2031 6.26563 68.6953 7.0625 68.2734 8.0625C67.8516 9.0625 67.5391 10.3047 67.3359 11.7891C67.1328 13.2734 67.0313 15.2031 67.0313 17.5781L67.0313 22.5L78.2344 22.5L78.2344 27.2344ZM0 22.5L13.3594 22.5L13.3594 46.3594C13.3594 50.0156 13.5 52.7969 13.7813 54.7031C14.0625 56.6094 14.4844 58.0469 15.0469 59.0156C15.6094 59.9844 16.4063 60.7969 17.4375 61.4531C18.4688 62.1094 19.8906 62.4375 21.7031 62.4375C22.8906 62.4375 24.0312 62.2031 25.125 61.7344C26.2187 61.2656 27.4375 60.4453 28.7812 59.2734C30.125 58.1016 31.0859 56.9375 31.6641 55.7813C32.2422 54.625 32.5313 53.2813 32.5313 51.75L32.5313 34.1719C32.5313 32.3906 32.4844 31.0469 32.3906 30.1406C32.2969 29.2344 32.1406 28.5078 31.9219 27.9609C31.7031 27.4141 31.4453 26.9688 31.1484 26.625C30.8516 26.2813 30.4297 25.9688 29.8828 25.6875C29.3359 25.4063 28.4531 25.1094 27.2344 24.7969L27.2344 22.5L40.5938 22.5L40.5938 54.5156C40.5937 56.9219 40.6406 58.6563 40.7344 59.7188C40.8281 60.7813 41.0312 61.625 41.3438 62.25C41.6562 62.875 42.1406 63.3828 42.7969 63.7734C43.4531 64.1641 44.625 64.5313 46.3125 64.875L46.3125 67.3125L35.5781 67.7813L32.7188 67.7813L33 60.0938L32.2969 59.9063C29.7031 62.7188 27.2266 64.7813 24.8672 66.0938C22.5078 67.4063 20.1406 68.0625 17.7656 68.0625C14.9219 68.0625 12.5781 67.5 10.7344 66.375C8.89063 65.25 7.51562 63.5703 6.60938 61.3359C5.70313 59.1016 5.25 55.9531 5.25 51.8906L5.25 34.1719C5.25 31.5469 5.14844 29.7422 4.94531 28.7578C4.74219 27.7734 4.35156 26.9922 3.77344 26.4141C3.19531 25.8359 1.9375 25.2969 0 24.7969L0 22.5Z" transform="translate(209.67456 77.3136)" id="path_2" />
    <path d="M88.8997 0C39.8048 0 0 39.8048 0 88.8997C0 137.995 39.8048 177.799 88.8997 177.799C137.995 177.799 177.799 137.995 177.799 88.8997C177.799 39.8048 137.995 0 88.8997 0L88.8997 0Z" id="path_3" />
    <clipPath id="mask_1">
      <use xlink:href="#path_1" />
    </clipPath>
    <clipPath id="mask_2">
      <use xlink:href="#path_3" />
    </clipPath>
  </defs>
  <g id="Logo-Gufly-2">
    <g id="Gufly">
      <path d="M0 0L463.214 0L463.214 196.515L0 196.515L0 0Z" id="Background" fill="none" fill-rule="evenodd" stroke="none" />
      <g clip-path="url(#mask_1)">
        <g id="ufly">
          <use stroke="none" fill="#154FB2" xlink:href="#path_2" fill-rule="evenodd" />
          <use stroke="none" fill="#FFFFFF" xlink:href="#path_2" fill-rule="evenodd" />
        </g>
        <g id="G-Copy-+-G-Copy-2-+-G-Copy-3-Mask" transform="translate(18.033813 9.1631775)">
          <path d="M88.8997 0C39.8048 0 0 39.8048 0 88.8997C0 137.995 39.8048 177.799 88.8997 177.799C137.995 177.799 177.799 137.995 177.799 88.8997C177.799 39.8048 137.995 0 88.8997 0L88.8997 0Z" id="Mask" fill="url(#gradient_1)" fill-rule="evenodd" stroke="none" />
          <g clip-path="url(#mask_2)">
            <path d="M0 88.8997C0 39.8017 39.8017 0 88.8997 0C137.998 0 177.799 39.8017 177.799 88.8997C177.799 137.998 137.998 177.799 88.8997 177.799C39.8017 177.799 0 137.998 0 88.8997Z" transform="translate(-88.68555 0)" id="Ellipse-Copy" fill="#000000" fill-opacity="0.09" fill-rule="evenodd" stroke="none" />
            <path d="M0 88.8997C0 39.8017 39.8017 0 88.8997 0C137.998 0 177.799 39.8017 177.799 88.8997C177.799 137.998 137.998 177.799 88.8997 177.799C39.8017 177.799 0 137.998 0 88.8997Z" transform="translate(-84.006714 0)" id="Ellipse-Copy-2" fill="#000000" fill-opacity="0.07" fill-rule="evenodd" stroke="none" />
            <path d="M0 88.8997C0 39.8017 39.8017 0 88.8997 0C137.998 0 177.799 39.8017 177.799 88.8997C177.799 137.998 137.998 177.799 88.8997 177.799C39.8017 177.799 0 137.998 0 88.8997Z" transform="translate(-79.32764 0)" id="Ellipse-Copy-3" fill="#000000" fill-opacity="0.05" fill-rule="evenodd" stroke="none" />
            <path d="M0 88.8997C0 39.8017 39.8017 0 88.8997 0C137.998 0 177.799 39.8017 177.799 88.8997C177.799 137.998 137.998 177.799 88.8997 177.799C39.8017 177.799 0 137.998 0 88.8997Z" transform="translate(-93.36438 0)" id="Ellipse" fill="url(#gradient_2)" fill-rule="evenodd" stroke="none" />
            <path d="M72.7978 78.5254L72.7978 59.0186L126.919 59.0186C126.919 73.0192 124.387 84.1146 119.324 92.3047C114.26 100.495 106.9 106.942 97.2436 111.646C87.5871 116.349 76.7545 118.701 64.7461 118.701C43.8835 118.701 27.8768 113.112 16.7261 101.934C5.57536 90.7552 0 76.5609 0 59.3506C0 47.3975 2.76693 36.8416 8.30078 27.6831C13.8346 18.5246 21.2777 11.6211 30.6299 6.97266C39.9821 2.32422 50.1367 0 61.0937 0C76.5885 0 88.6523 3.76302 97.2851 11.2891L97.2851 1.82617L116.875 1.82617L116.875 42.832L97.2851 42.832C95.2376 35.9147 91.1702 30.4639 85.083 26.4795C78.9958 22.4951 72.4658 20.5029 65.4932 20.5029C56.307 20.5029 48.4766 23.7541 42.002 30.2563C35.5273 36.7586 32.29 45.765 32.29 57.2754C32.29 70.446 35.5827 80.4761 42.168 87.3657C48.7533 94.2554 56.7773 97.7002 66.2402 97.7002C73.2129 97.7002 78.9958 96.0124 83.5889 92.6367C88.182 89.2611 91.3639 84.5573 93.1348 78.5254L72.7978 78.5254Z" transform="translate(51.803955 30.463364)" id="G" fill="#FFFFFF" fill-rule="evenodd" stroke="none" filter="url(#filter_1)" />
          </g>
        </g>
      </g>
    </g>
  </g>
</svg>